<mxfile host="app.diagrams.net" modified="2023-06-01T00:45:55.785Z" agent="Mozilla/5.0 (Windows NT 10.0; Win64; x64) AppleWebKit/537.36 (KHTML, like Gecko) Chrome/113.0.0.0 Safari/537.36" etag="KvdRJ_8KtnPIBf3RxvL9" version="21.3.6" type="device">
  <diagram name="페이지-1" id="znxCfTIk6Qh5BbgwGPXJ">
    <mxGraphModel dx="1434" dy="756" grid="1" gridSize="10" guides="1" tooltips="1" connect="1" arrows="1" fold="1" page="1" pageScale="1" pageWidth="4681" pageHeight="3300" math="0" shadow="0">
      <root>
        <mxCell id="0" />
        <mxCell id="1" parent="0" />
        <mxCell id="_bP_npE_BkTZKTOw4hE0-4" style="edgeStyle=orthogonalEdgeStyle;rounded=0;orthogonalLoop=1;jettySize=auto;html=1;entryX=0;entryY=0.5;entryDx=0;entryDy=0;" edge="1" parent="1" source="_bP_npE_BkTZKTOw4hE0-1" target="_bP_npE_BkTZKTOw4hE0-3">
          <mxGeometry relative="1" as="geometry" />
        </mxCell>
        <mxCell id="_bP_npE_BkTZKTOw4hE0-1" value="유저" style="shape=umlActor;verticalLabelPosition=bottom;verticalAlign=top;html=1;outlineConnect=0;" vertex="1" parent="1">
          <mxGeometry x="240" y="210" width="70" height="140" as="geometry" />
        </mxCell>
        <mxCell id="_bP_npE_BkTZKTOw4hE0-9" style="edgeStyle=orthogonalEdgeStyle;rounded=0;orthogonalLoop=1;jettySize=auto;html=1;entryX=0.5;entryY=0;entryDx=0;entryDy=0;" edge="1" parent="1" source="_bP_npE_BkTZKTOw4hE0-3" target="_bP_npE_BkTZKTOw4hE0-6">
          <mxGeometry relative="1" as="geometry" />
        </mxCell>
        <mxCell id="_bP_npE_BkTZKTOw4hE0-12" style="edgeStyle=orthogonalEdgeStyle;rounded=0;orthogonalLoop=1;jettySize=auto;html=1;entryX=0.5;entryY=0;entryDx=0;entryDy=0;" edge="1" parent="1" source="_bP_npE_BkTZKTOw4hE0-3" target="_bP_npE_BkTZKTOw4hE0-7">
          <mxGeometry relative="1" as="geometry" />
        </mxCell>
        <mxCell id="_bP_npE_BkTZKTOw4hE0-14" style="edgeStyle=orthogonalEdgeStyle;rounded=0;orthogonalLoop=1;jettySize=auto;html=1;entryX=0;entryY=0.5;entryDx=0;entryDy=0;" edge="1" parent="1" source="_bP_npE_BkTZKTOw4hE0-3" target="_bP_npE_BkTZKTOw4hE0-8">
          <mxGeometry relative="1" as="geometry" />
        </mxCell>
        <mxCell id="_bP_npE_BkTZKTOw4hE0-23" style="edgeStyle=orthogonalEdgeStyle;rounded=0;orthogonalLoop=1;jettySize=auto;html=1;entryX=0;entryY=0.5;entryDx=0;entryDy=0;" edge="1" parent="1" source="_bP_npE_BkTZKTOw4hE0-3" target="_bP_npE_BkTZKTOw4hE0-22">
          <mxGeometry relative="1" as="geometry" />
        </mxCell>
        <mxCell id="_bP_npE_BkTZKTOw4hE0-3" value="로그인하기" style="ellipse;whiteSpace=wrap;html=1;fillColor=#ffe6cc;strokeColor=#d79b00;" vertex="1" parent="1">
          <mxGeometry x="500" y="240" width="200" height="80" as="geometry" />
        </mxCell>
        <mxCell id="_bP_npE_BkTZKTOw4hE0-17" style="edgeStyle=orthogonalEdgeStyle;rounded=0;orthogonalLoop=1;jettySize=auto;html=1;entryX=0.5;entryY=0;entryDx=0;entryDy=0;" edge="1" parent="1" source="_bP_npE_BkTZKTOw4hE0-6" target="_bP_npE_BkTZKTOw4hE0-15">
          <mxGeometry relative="1" as="geometry" />
        </mxCell>
        <mxCell id="_bP_npE_BkTZKTOw4hE0-6" value="회원가입하기" style="ellipse;whiteSpace=wrap;html=1;" vertex="1" parent="1">
          <mxGeometry x="360" y="360" width="200" height="80" as="geometry" />
        </mxCell>
        <mxCell id="_bP_npE_BkTZKTOw4hE0-13" style="edgeStyle=orthogonalEdgeStyle;rounded=0;orthogonalLoop=1;jettySize=auto;html=1;entryX=0.5;entryY=0;entryDx=0;entryDy=0;" edge="1" parent="1" source="_bP_npE_BkTZKTOw4hE0-7" target="_bP_npE_BkTZKTOw4hE0-8">
          <mxGeometry relative="1" as="geometry" />
        </mxCell>
        <mxCell id="_bP_npE_BkTZKTOw4hE0-25" style="edgeStyle=orthogonalEdgeStyle;rounded=0;orthogonalLoop=1;jettySize=auto;html=1;entryX=0;entryY=0.5;entryDx=0;entryDy=0;" edge="1" parent="1" source="_bP_npE_BkTZKTOw4hE0-7" target="_bP_npE_BkTZKTOw4hE0-20">
          <mxGeometry relative="1" as="geometry" />
        </mxCell>
        <mxCell id="_bP_npE_BkTZKTOw4hE0-7" value="아이디찾기" style="ellipse;whiteSpace=wrap;html=1;" vertex="1" parent="1">
          <mxGeometry x="640" y="360" width="200" height="80" as="geometry" />
        </mxCell>
        <mxCell id="_bP_npE_BkTZKTOw4hE0-26" style="edgeStyle=orthogonalEdgeStyle;rounded=0;orthogonalLoop=1;jettySize=auto;html=1;entryX=0;entryY=0.5;entryDx=0;entryDy=0;" edge="1" parent="1" source="_bP_npE_BkTZKTOw4hE0-8" target="_bP_npE_BkTZKTOw4hE0-20">
          <mxGeometry relative="1" as="geometry" />
        </mxCell>
        <mxCell id="_bP_npE_BkTZKTOw4hE0-8" value="비밀번호찾기" style="ellipse;whiteSpace=wrap;html=1;" vertex="1" parent="1">
          <mxGeometry x="640" y="480" width="200" height="80" as="geometry" />
        </mxCell>
        <mxCell id="_bP_npE_BkTZKTOw4hE0-19" style="edgeStyle=orthogonalEdgeStyle;rounded=0;orthogonalLoop=1;jettySize=auto;html=1;entryX=0;entryY=0.5;entryDx=0;entryDy=0;" edge="1" parent="1" source="_bP_npE_BkTZKTOw4hE0-15" target="_bP_npE_BkTZKTOw4hE0-18">
          <mxGeometry relative="1" as="geometry" />
        </mxCell>
        <mxCell id="_bP_npE_BkTZKTOw4hE0-15" value="유효성검사하기" style="ellipse;whiteSpace=wrap;html=1;" vertex="1" parent="1">
          <mxGeometry x="360" y="600" width="200" height="80" as="geometry" />
        </mxCell>
        <mxCell id="_bP_npE_BkTZKTOw4hE0-16" value="&lt;h1&gt;유효성검사&lt;/h1&gt;&lt;p&gt;이메일 중복검사&lt;/p&gt;&lt;p&gt;이메일 형식검사&lt;/p&gt;&lt;p&gt;비밀번호 적합성 검사&lt;/p&gt;" style="text;html=1;strokeColor=none;fillColor=none;spacing=5;spacingTop=-20;whiteSpace=wrap;overflow=hidden;rounded=0;" vertex="1" parent="1">
          <mxGeometry x="365" y="690" width="190" height="120" as="geometry" />
        </mxCell>
        <mxCell id="_bP_npE_BkTZKTOw4hE0-21" style="edgeStyle=orthogonalEdgeStyle;rounded=0;orthogonalLoop=1;jettySize=auto;html=1;entryX=0;entryY=0.5;entryDx=0;entryDy=0;" edge="1" parent="1" source="_bP_npE_BkTZKTOw4hE0-18" target="_bP_npE_BkTZKTOw4hE0-20">
          <mxGeometry relative="1" as="geometry" />
        </mxCell>
        <mxCell id="_bP_npE_BkTZKTOw4hE0-18" value="회원정보 저장하기" style="ellipse;whiteSpace=wrap;html=1;" vertex="1" parent="1">
          <mxGeometry x="640" y="600" width="200" height="80" as="geometry" />
        </mxCell>
        <mxCell id="_bP_npE_BkTZKTOw4hE0-20" value="회원정보 Table" style="shape=internalStorage;whiteSpace=wrap;html=1;backgroundOutline=1;" vertex="1" parent="1">
          <mxGeometry x="1000" y="480" width="160" height="80" as="geometry" />
        </mxCell>
        <mxCell id="_bP_npE_BkTZKTOw4hE0-24" style="edgeStyle=orthogonalEdgeStyle;rounded=0;orthogonalLoop=1;jettySize=auto;html=1;entryX=0.5;entryY=0;entryDx=0;entryDy=0;" edge="1" parent="1" source="_bP_npE_BkTZKTOw4hE0-22" target="_bP_npE_BkTZKTOw4hE0-20">
          <mxGeometry relative="1" as="geometry" />
        </mxCell>
        <mxCell id="_bP_npE_BkTZKTOw4hE0-22" value="회원정보 조회&lt;br&gt;로그인 승인하기" style="ellipse;whiteSpace=wrap;html=1;" vertex="1" parent="1">
          <mxGeometry x="760" y="240" width="200" height="80" as="geometry" />
        </mxCell>
      </root>
    </mxGraphModel>
  </diagram>
</mxfile>
